<?xml version='1.0' encoding='utf-8'?>
<svg xmlns="http://www.w3.org/2000/svg" viewBox="0 0 744.09 1052.4"> <defs> <linearGradient id="a" x2="0" y1="560.1" y2="591.94" gradientUnits="userSpaceOnUse"> <stop stop-color="#ccbcbc" offset="0"/> <stop stop-color="#665f5f" offset="1"/> </linearGradient> </defs> <path d="m96.922 399.42c-19.012 18.789-66.403 132.64-75.889 148.83-3.9347 32.32 0.64759 50.718 13.04 62.975 169.49-0.15612 567.17-0.80408 678.93-4.0749 21.259-22.601 15.161-59.473 8.2415-71.534-18.504-28.03-60.152-116.95-82.99-135.29-90.38-2.0452-381.27-2.2815-541.33-0.91363z" fill="url(#a)" stroke="#000" stroke-width=".3929"/> <path d="m35.984 536.89c4.2033 3.9227 175.29 0.874 290.92 0.4122 86.349-0.42381 384.69-0.27204 387.24-1.7353 0.1935-5.0914-49.573-94.218-54.633-99.772-4.4203-2.9684-187-2.5416-336.63-2.6766-186.4 5.0752-237.91 1.2034-241.24 2.9243-2.8164 1.7173-48.369 95.987-45.658 100.85z" fill="none" stroke="#5c5555" stroke-width=".3929"/> <path d="m611.03 507.02c10.973 0.26484 34.695 0.63193 45.659-0.0988-5.0905-14.477 0.47732-21.169-10.398-27.644-3.4957-4.7654 0.41186-9.9542-7.89-16.046-2.0565-5.0671 1.3315-6.6949-8.0791-17.599-3.1085-8.2333 3.099-6.2415-7.0993-18.375-11.56-0.17793-19.962-1.337-29.445 0.0794-2.7534 4.4844-8.6137 11.95-9.0851 17.131 8.6231 20.857 16.605 43.467 26.337 62.551z" fill="#4d4d4d" stroke="#000" stroke-width=".3929"/> <path d="m435.94 507.95c21.255-2.6616 116.96 0.23408 131.39-0.13502-1.7405-28.815-12.266-30.878-8.788-34.544 3.4364-0.25893 2.8107-0.0102 4.9636-1.1691-3.6068-8.1529-3.4065-19.153-10.454-28.128-3.0961-13.322 0.38917-17.834-13.204-16.338-12.872-2.3593-9.3518 5.3404-14.484 16.726-2.7488-13.233 1.2884-18.217-12.676-16.823-13.27-1.3282-8.971 4.5907-15.896 16.192-4.6047-10.334 1.4369-17.108-12.422-15.987-16.533-2.1699-9.1513 7.4642-17.041 14.183-3.9878-10.439 0.90921-15.122-11.349-14.604-13.166-0.62599-10.278 1.169-16.744 15.384-5.349-17.349-1.8065-15.589-13.13-15.463-11.98-0.71624-8.6482-0.9829-15.626 16.921-3.8791-18.297-4.0344-17.653-15.374-16.578-8.5485-0.17199-7.6316-3.1723-13.657 16.753-5.7738-18.689-2.7972-17.324-14.023-16.922-15.086-1.0767-7.7521 2.0128-15.204 16.552-4.2305-15.482-1.2627-16.866-13.681-16.505-14.288-1.0952-9.8135 3.1593-14.265 15.983-7.0812-11.42-2.0611-17.632-14.885-15.772-14.236-1.101-9.6339 3.7196-14.255 14.865-5.6495-11.276-2.008-16.022-14.667-14.841-12.876-0.78177-9.8038 3.6005-14.282 14.756-5.9184-11.267-2.519-16.172-14.739-14.732-12.165-1.0834-8.7536 2.9145-14.034 14.725-5.6915-10.612-2.1782-15.801-14.757-14.824-12.173-1.7583-11.104 3.8292-14.324 15.242-5.072-11.215-2.2682-15.785-15.172-15.106-13.337-0.88833-8.5179 5.4144-13.877 15.704-5.9766-12.749-3.4724-16.496-14.831-15.414-12.787-1.0719-10.4 4.1609-13.867 14.262-4.907-6.7664-1.7112-15.824-14.414-14.388-14.258-0.97071-10.215 5.2355-13.415 14.201-6.1948-10.435-2.8001-14.414-16.996-13.465-11.143-1.1372-7.7959 3.168-13.422 18.465-4.9358 3.9911-4.4617 10.815-7.1566 16.683-14.232-0.99194-9.1821 12.028-13.697 17.811-12.332 7.0356-4.4317 10.964-11.084 27.93 22.774 0.75071 72.074-1.0903 84.072 0.52444-1.3322 7.3857-2.7679 8.0102-5.6389 18.669 60.929 1.952 236.7-1.5078 297.58-1.7099-0.283-7.242-0.75994-11.197-0.47808-19.084z" fill="#241c1c" stroke="#000" stroke-width=".3929"/> <path d="m598.57 437.12c6.1286 0.50846 25.734-0.0681 29.661-0.36361 0.42733-2.4435-4.3654-7.8527-5.1464-8.7958-9.3631-0.61551-21.461-1.1279-28.288-0.11051-0.74383 2.0833 1.4537 5.8424 3.774 9.2699z" fill="#666" stroke="#000" stroke-width=".3929"/> <path d="m605.25 454.86c6.1286 0.50847 25.734-0.0681 29.661-0.36361 0.42727-2.4435-4.3654-7.1695-5.1465-8.1126-9.363-0.61551-22.827-0.82018-29.655 0.19725-0.74383 2.0833 2.8202 4.8514 5.1405 8.279z" fill="#666" stroke="#000" stroke-width=".3929"/> <path d="m611.96 470.72c6.1286 0.50847 26.863 0.47095 30.789 0.17539 0.42727-2.4435-4.5706-6.554-5.3516-7.4971-9.363-0.61551-23.443-0.71759-30.27 0.29983-0.74389 2.0833 2.5123 3.5944 4.8327 7.0219z" fill="#666" stroke="#000" stroke-width=".3929"/> <path d="m620.1 487.34c6.1286 0.50846 27.676 0.50092 31.602 0.20535 0.42728-2.4435-4.7351-6.4726-5.5162-7.4157-9.363-0.61551-25.152-0.615-31.979 0.40242-0.74383 2.0833 3.0602 4.6114 5.8934 6.8079z" fill="#666" stroke="#000" stroke-width=".3929"/> <path d="m83.111 488.48c-6.2316 0.50525-11.771 0.0113-15.763-0.28235-0.43446-2.428 3.8896-5.5643 4.6837-6.5014 9.5204-0.61161 9.2046-0.992 16.147 0.0189 0.75634 2.0701-3.9404 5.3439-5.0672 6.7648z" fill="#483737" stroke="#000" stroke-width=".3929"/> <path d="m129.83 487.93c-6.2316 0.50525-28.829 0.0113-32.821-0.28235-0.43446-2.428 3.9073-5.5927 4.7014-6.5298 9.5204-0.61161 25.279-0.96354 32.221 0.0474 0.75635 2.0701-2.9751 5.3439-4.102 6.7647z" fill="#483737" stroke="#000" stroke-width=".3929"/> <path d="m91.134 472.34c-6.2316 0.50524-12.05 0.0113-16.042-0.28236-0.43446-2.428 3.7398-6.1885 4.5339-7.1256 9.5204-0.61162 2.6719-0.40558 15.361 0.0189 0.75634 2.0701-2.7259 5.9682-3.8528 7.389z" fill="#483737" stroke="#000" stroke-width=".3929"/> <path d="m429.17 506.92c-6.2316 0.50525-280.47 0.31898-284.46 0.0252 0.83296-2.1745 3.5727-6.1872 4.3668-7.1243 9.5204-0.6116 272.23-1.6117 279.99-0.42616 1.0098 1.8166 1.2304 6.1044 0.10357 7.5252z" fill="#483737" stroke="#000" stroke-width=".3929"/> <path d="m161.78 486.79c-6.2316 0.50525-13.401 0.56164-17.394 0.26793-0.43446-2.428 3.3192-4.8932 4.1134-5.8303 9.5204-0.61161 5.6696-0.53777 16.244-0.40726 0.75634 2.0701-1.8367 4.5488-2.9636 5.9697z" fill="#483737" stroke="#000" stroke-width=".3929"/> <path d="m192.82 487.11c-6.2316 0.50525-13.401 0.56164-17.394 0.26793-0.43446-2.428 4.0957-5.5144 4.8898-6.4515 9.5204-0.61161 5.6696-0.3032 16.244-0.17268 0.75634 2.0701-2.6132 4.9355-3.7401 6.3563z" fill="#483737" stroke="#000" stroke-width=".3929"/> <path d="m226.36 486.93c-6.2316 0.50524-14.644 0.56163-18.636 0.26792-0.43447-2.428 2.698-5.6697 3.4922-6.6068 4.1416-0.0664 12.347-0.81643 17.02-0.37532-0.0201 2.0701-0.74964 5.2934-1.8766 6.7142z" fill="#483737" stroke="#000" stroke-width=".3929"/> <path d="m257.9 486.98c-6.2316 0.50525-14.723 0.40635-18.715 0.11263 0.65261-2.428 1.839-5.8343 2.6332-6.7714 7.1909-0.30103 12.74-0.61381 17.413-0.17269-0.0201 2.0701-0.20448 5.4107-1.3314 6.8315z" fill="#483737" stroke="#000" stroke-width=".3929"/> <path d="m290.41 486.95c-6.2316 0.50525-13.989 0.57282-17.981 0.27913-0.0133-2.2615 1.1866-5.6678 1.9808-6.605 7.1909-0.30102 12.099-0.78028 16.772-0.33918-0.0201 2.0701 0.35561 5.2442-0.77133 6.665z" fill="#483737" stroke="#000" stroke-width=".3929"/> <path d="m321.82 487.23c-6.2316 0.50525-14.408 0.40635-18.4 0.11263-0.0133-2.2615 1.2728-5.6678 2.067-6.6049 7.1909-0.30102 12.32-0.78029 16.993-0.33917-0.0201 2.0701 0.46684 5.4107-0.66005 6.8315z" fill="#483737" stroke="#000" stroke-width=".3929"/> <path d="m355.9 487.16c-6.2316 0.50525-15.68 0.40634-19.673 0.11263-0.0133-2.2615 0.758-5.6678 1.5522-6.6049 7.1909-0.30101 12.157-0.78028 16.83-0.33916 0.81226 2.403 2.4178 5.4107 1.2909 6.8315z" fill="#483737" stroke="#000" stroke-width=".3929"/> <path d="m387.98 486.91c-6.2316 0.50524-15.514 0.40633-19.506 0.11262-0.0133-2.2615-1.7659-5.6678-0.97171-6.6049 5.0266-0.80047 14.348-0.78029 19.02-0.33917 0.81226 2.403 2.5843 5.4107 1.4574 6.8315z" fill="#483737" stroke="#000" stroke-width=".3929"/> <path d="m420.23 487.02c-6.2316 0.50525-14.681 0.40635-18.674 0.11264-0.0133-2.2615-2.9313-5.5014-2.1371-6.4384 5.0266-0.80047 13.848-0.44733 18.521-6e-3 0.81229 2.403 3.4167 4.9112 2.2898 6.332z" fill="#483737" stroke="#000" stroke-width=".3929"/> <path d="m450.77 486.93c-6.2316 0.50524-12.897 0.23985-16.889-0.0538-1.0122-1.0961-3.7171-5.3349-2.9229-6.272 5.0266-0.80047 12.683-0.44731 17.356-6e-3 1.1452 2.0701 3.5832 4.9112 2.4563 6.332z" fill="#483737" stroke="#000" stroke-width=".3929"/> <path d="m498.21 486.87c-6.2316 0.50525-29.279 0.40633-33.271 0.11263-1.0122-1.0962-2.8846-5.3815-2.0905-6.3186 5.0266-0.80047 28.232-0.61381 32.905-0.1727 0.97872 1.0712 3.5832 4.9578 2.4562 6.3786z" fill="#483737" stroke="#000" stroke-width=".3929"/> <path d="m530.28 487.28c-6.2316 0.50525-12.351 0.23985-16.343-0.0538-1.0122-1.0961-4.383-5.548-3.5888-6.4851 5.0266-0.80047 12.303-0.44731 16.976-6e-3 0.97876 1.0712 4.0827 5.1243 2.9558 6.5451z" fill="#483737" stroke="#000" stroke-width=".3929"/> <path d="m561.04 487.12c-6.2316 0.50524-12.397 0.23986-16.39-0.0538-1.0122-1.0962-4.5029-5.548-3.7087-6.4851 5.0266-0.80047 11.924-0.44733 16.596-6e-3 0.97876 1.0712 4.6287 5.1243 3.5018 6.5451z" fill="#483737" stroke="#000" stroke-width=".3929"/> <path d="m119.79 472.17c-6.2316 0.50524-12.836 0.0113-16.828-0.28236-0.43446-2.428 4.097-6.3058 4.8911-7.2429 9.5204-0.61161 3.575-0.2883 16.147 0.0189 0.75634 2.0701-3.0831 6.0855-4.21 7.5063z" fill="#483737" stroke="#000" stroke-width=".3929"/> <path d="m151.22 471.5c-6.2316 0.50525-12.836 0.0113-16.828-0.28236-0.43447-2.428 3.4284-6.1885 4.2226-7.1256 9.5204-0.61162 4.2435-0.2883 16.815 0.0189 0.75635 2.0701-3.0831 5.9682-4.21 7.389z" fill="#483737" stroke="#000" stroke-width=".3929"/> <path d="m183.32 471.96c-6.2316 0.50525-12.836 0.0113-16.828-0.28235-0.43446-2.428 3.0712-6.3058 3.8654-7.2429 9.5204-0.61161 4.1262-0.2883 16.698 0.0189 0.75634 2.0701-2.6086 6.0855-3.7355 7.5063z" fill="#483737" stroke="#000" stroke-width=".3929"/> <path d="m213.37 471.96c-6.2316 0.50525-12.601-0.10592-16.593-0.39964-0.43446-2.428 3.1939-6.7398 3.988-7.6768 8.934-0.37705 9.3218-0.17101 15.795 0.13627 0.75634 2.0701-2.0627 6.5194-3.1896 7.9402z" fill="#483737" stroke="#000" stroke-width=".3929"/> <path d="m245.98 471.85c-6.2316 0.50525-13.891 0.0114-17.883-0.28235-0.43446-2.428 1.8984-6.857 2.6926-7.7941 5.7099-0.14017 11.478-0.23243 16.381 0.25356 0.75634 2.0701-0.0636 6.4021-1.1905 7.8229z" fill="#483737" stroke="#000" stroke-width=".3929"/> <path d="m277.05 471.53c-6.2316 0.50524-13.891 0.0113-17.884-0.28236-0.43445-2.428 0.684-7.0916 1.4782-8.0287 5.7099-0.14017 11.749-0.23243 16.652 0.25355 0.75633 2.0701 0.74437 6.6367-0.38253 8.0575z" fill="#483737" stroke="#000" stroke-width=".3929"/> <path d="m308.49 471.53c-6.2316 0.50524-13.891 0.0113-17.884-0.28236-0.43445-2.428 0.684-7.2089 1.4782-8.146 5.7099-0.14017 11.478-0.23243 16.381 0.25354 0.75633 2.0701 1.1508 6.754 0.0239 8.1748z" fill="#483737" stroke="#000" stroke-width=".3929"/> <path d="m339.92 471.65c-6.2316 0.50525-13.891 0.0113-17.883-0.28235-0.43447-2.428-0.10181-7.2089 0.69237-8.146 5.7099-0.14018 11.478-0.23243 16.381 0.25354 0.75634 2.0701 1.9366 6.754 0.80973 8.1748z" fill="#483737" stroke="#000" stroke-width=".3929"/> <path d="m371.12 471.86c-6.2316 0.50526-13.774 0.0113-17.766-0.28235-0.43446-2.428-0.10181-7.0916 0.69237-8.0287 5.7099-0.14017 10.81-0.23242 15.713 0.25355 0.75635 2.0701 2.4879 6.6367 1.361 8.0575z" fill="#483737" stroke="#000" stroke-width=".3929"/> <path d="m401.29 471.86c-6.2316 0.50526-13.422 0.12865-17.414-0.16506-0.43446-2.428-1.5561-7.2089-0.76196-8.146 5.7099-0.14017 11.912-0.23242 16.815 0.25355 0.75635 2.0701 2.4879 6.6367 1.361 8.0575z" fill="#483737" stroke="#000" stroke-width=".3929"/> <path d="m433.08 471.63c-6.2316 0.50524-13.774 0.12863-17.766-0.16508-0.43447-2.428-1.7907-7.2089-0.99652-8.146 5.7099-0.14017 12.029-0.23243 16.933 0.25354 0.75634 2.0701 2.957 6.6367 1.8301 8.0575z" fill="#483737" stroke="#000" stroke-width=".3929"/> <path d="m463.96 471.63c-6.2316 0.50524-13.305 0.3632-17.297 0.0695-0.43447-2.428-2.4944-7.4435-1.7002-8.3806 5.7099-0.14017 11.795-0.23243 16.698 0.25355 0.75634 2.0701 3.4261 6.6367 2.2992 8.0575z" fill="#483737" stroke="#000" stroke-width=".3929"/> <path d="m493.82 471.63c-6.2316 0.50524-12.836 0.3632-16.828 0.0695-0.90363-2.3107-2.9635-7.4435-2.1694-8.3806 5.7099-0.14017 11.795-0.23243 16.698 0.25355 1.1082 2.0701 3.4261 6.6367 2.2992 8.0575z" fill="#483737" stroke="#000" stroke-width=".3929"/> <path d="m555.78 471.63c-6.2316 0.50524-41.793 0.3632-45.785 0.0695-1.8419-1.8416-4.5351-7.3262-3.741-8.2633 5.7099-0.14018 40.752-0.23243 45.655 0.25354 1.6946 1.9528 4.9977 6.5194 3.8708 7.9402z" fill="#483737" stroke="#000" stroke-width=".3929"/> <path d="m86.559 414.01 563.86-0.19167" fill="none" stroke="#737373" stroke-width=".7858"/> <path d="m87.714 412.25 561.56-0.19167" fill="none" stroke="#737373" stroke-width=".7858"/> <path d="m88.943 410.27 558.28-0.19167" fill="none" stroke="#737373" stroke-width=".78637"/> <path d="m90.159 408.32 555.34-0.19166" fill="none" stroke="#737373" stroke-width=".78602"/> <path d="m91.624 406.15 552.4-0.19165" fill="none" stroke="#737373" stroke-width=".78612"/> <path d="m93.499 403.79 548.45-0.19165" fill="none" stroke="#737373" stroke-width=".78573"/> <path d="m123.56 407.3c-0.68262 3.5669 8.5516 3.6814 12.198 3.3317 39.031 0.20671 98.24-0.79318 133.98-0.40129 3.9487-0.72577 6.0273-1.7962 6.4107-3.6624 0.0901-1.3603-2.4727-3.6583-5.3433-3.2534-46.179 0.28931-90.279 0.60148-133.38 0.62496-4.5188 0.30822-13.327-0.14114-13.867 3.3605z" fill="#4d4d4d" stroke="#000" stroke-width=".39748"/> <path d="m140.15 408.47c18.287 0.18607 45.451-0.64098 61.67-0.71903 3.2346 1.149 7.6502-2.6403 1.6119-2.724-33.479 0.26306-57.723 0.21964-60.341 0.74243-2.9899 0.0514-4.7369 1.8313-2.9405 2.7006z" fill="#808080" stroke="#000" stroke-width=".00385"/> <path d="m563.34 404.59c-5.3094 1.2936-3.7479 4.0249-0.0292 5.1155 10.343 0.38685 21.037 0.84919 27.994 0.55193 5.2409-2.0953 2.3649-5.2209-2.1272-5.6907-7.5056-4e-3 -17.629 0.26185-25.837 0.0233z" fill="#483737" stroke="#000" stroke-width=".3929"/> <path d="m584.73 405.76c-1.8796 1.2949-0.49811 2.3167 0.98311 2.9445 2.5894 0.22268 3.3958 0.37874 5.1375 0.20764 2.5227-0.87591 2.573-1.926-0.2024-2.7467-3.4245-0.20492-3.1454-1.0203-5.9182-0.4054z" fill="#1a1a1a" stroke="#000" stroke-width=".14915"/> <path d="m586.64 402.7c-1.0819 1.213-1.4187 3.7742-0.66097 4.7968 2.1076 0.36275 2.8675 0.38349 4.2852 0.10475 1.068-1.9648 0.37274-4.3166-0.54266-4.7572-0.59828-1.0536-2.1366-1.3571-3.0816-0.14443z" fill="#d40000" stroke="#000" stroke-width=".17175"/> <path d="m563.22 407.91c4.7753 0.13521 9.6266 0.0423 13.861 0.0857 2.1132 0.79352 4.0803-2.0645 0.81032-1.9469-14.211 0.41441-13.555-1.0412-15.005 0.49601 1.0142 1.2061 0.0814 1.3311 0.33348 1.3653z" fill="#b3b3b3" stroke="#000" stroke-width=".3929"/> <path d="m119.75 454.76c-9.9911 0.51956-24.508 0.0117-30.909-0.29035 0.25181-2.6361 3.4254-7.0418 4.6987-8.0054 9.0317 0.48564 19.714-0.15714 29.031 0.0195 0.94167 2.2681-1.827 6.6759-2.8209 8.2763z" fill="#483737" stroke="#000" stroke-width=".3929"/> <path d="m149.93 454.64c-5.9829 0.50525-12.048 0.0113-15.881-0.28235 0.15079-2.5635 2.4576-7.1187 3.2201-8.0558 5.4084 0.47225 9.8268-0.15281 15.406 0.0189 0.5639 2.2056-2.1508 6.7629-2.746 8.3192z" fill="#483737" stroke="#000" stroke-width=".3929"/> <path d="m179.93 454.64c-5.9829 0.50525-12.319 0.0113-16.152-0.28235 0.15079-2.5635 2.4576-6.5768 3.2201-8.1913 3.716-0.21893 11.275 0.25024 15.271 0.0189 0.56389 2.2056-1.7444 6.8984-2.3395 8.4546z" fill="#483737" stroke="#000" stroke-width=".3929"/> <path d="m209.11 454.64c-5.9829 0.50525-12.048 0.0113-15.881-0.28235 0.15079-2.5635 2.1867-6.5768 2.9492-8.1913 3.716-0.21893 11.98-0.0208 14.756 0.0189 0.56388 2.2056-1.2295 6.8984-1.8247 8.4546z" fill="#483737" stroke="#000" stroke-width=".3929"/> <path d="m240.54 454.51c-5.9829 0.50525-12.969 0.0113-16.802-0.28235 0.15079-2.5635 0.61507-6.8477 1.3775-8.4622 3.716-0.21894 13.687-0.0208 16.463 0.0189 0.56389 2.2056-0.44373 7.1694-1.0389 8.7256z" fill="#483737" stroke="#000" stroke-width=".3929"/> <path d="m271.46 454.84c-5.9829 0.50524-14.297 0.0113-18.13-0.28235 0.1508-2.5635 1.4009-6.8477 2.1634-8.4623 3.716-0.21893 12.901-0.0208 15.677 0.0189 0.56389 2.2056 0.88399 7.1693 0.28885 8.7256z" fill="#483737" stroke="#000" stroke-width=".3929"/> <path d="m302.11 454.43c-5.9829 0.50524-14.297 0.0113-18.13-0.28236 0.15078-2.5635 1.2654-6.8748 2.0279-8.4894 3.716-0.21893 13.036-0.0207 15.813 0.0189 0.5639 2.2056 0.884 7.1964 0.28886 8.7527z" fill="#483737" stroke="#000" stroke-width=".3929"/> <path d="m331.97 454.43c-5.9829 0.50524-14.297 0.0113-18.13-0.28236 0.15079-2.5635 0.72346-6.8748 1.4859-8.4894 3.716-0.21893 12.793-0.0207 15.569 0.0189 0.5639 2.2056 1.6698 7.1964 1.0747 8.7527z" fill="#483737" stroke="#000" stroke-width=".3929"/> <path d="m362.99 454.36c-5.9829 0.50525-13.89 0.0113-17.723-0.28236 0.15079-2.5635-0.98362-6.8748-0.22115-8.4894 3.716-0.21893 13.687-0.0208 16.463 0.0189 0.56388 2.2056 2.0762 7.1964 1.4811 8.7527z" fill="#483737" stroke="#000" stroke-width=".3929"/> <path d="m393.26 454.36c-5.9829 0.50525-13.755 0.0113-17.588-0.28236-0.25566-2.2925-1.1191-6.8748-0.35664-8.4894 3.716-0.21893 13.036-0.0208 15.813 0.0189 0.56389 2.2056 2.7266 7.1964 2.1314 8.7527z" fill="#483737" stroke="#000" stroke-width=".3929"/> <path d="m424.58 454.36c-5.9828 0.50525-14.676 0.14684-18.509-0.14687-0.25566-2.2925-1.9049-7.0103-1.1424-8.6248 3.716-0.21893 13.822-0.0208 16.599 0.0189 0.97036 2.2056 2.835 7.1964 3.0527 8.7527z" fill="#483737" stroke="#000" stroke-width=".3929"/> <path d="m453.66 454.49c-5.9829 0.50525-14.676 0.14684-18.509-0.14687-0.25566-2.2925-1.7694-7.0103-1.0069-8.6248 3.716-0.21892 14.229-0.0208 17.005 0.0189 0.97035 2.2056 2.293 7.1964 2.5108 8.7527z" fill="#483737" stroke="#000" stroke-width=".3929"/> <path d="m483.92 454.49c-5.9829 0.50525-14.676 0.14684-18.509-0.14687-0.66212-2.157-2.3114-7.0103-1.5489-8.6248 3.716-0.21892 14.229-0.0208 17.005 0.0189 0.97034 2.2056 2.835 7.1964 3.0527 8.7527z" fill="#483737" stroke="#000" stroke-width=".3929"/> <path d="m514.16 454.49c-5.9829 0.50525-12.59 0.14684-16.423-0.14687-0.66212-2.157-3.612-7.0103-2.8496-8.6248 3.716-0.21892 12.413-0.0208 15.19 0.0189 0.97034 2.2056 3.8646 7.1964 4.0824 8.7527z" fill="#483737" stroke="#000" stroke-width=".3929"/> <path d="m557.11 454.54c-5.9829 0.50526-27.005 0.14685-30.838-0.14686-1.3396-1.7506-4.1268-7.0103-3.3644-8.6248 3.716-0.21893 27.343-0.0207 30.12 0.0189 1.3768 1.5282 3.8646 7.1964 4.0823 8.7527z" fill="#483737" stroke="#000" stroke-width=".3929"/> <path d="m111.6 437.49c-5.7414 0.50525-11.561 0.0113-15.24-0.28236 0.1447-2.5635 2.3584-7.1187 3.0901-8.0558 5.1901 0.47225 9.4302-0.15282 14.785 0.019 0.54113 2.2056-2.064 6.7629-2.6351 8.3192z" fill="#483737" stroke="#000" stroke-width=".3929"/> <path d="m140.94 437.08c-5.7414 0.50524-11.561 0.0113-15.24-0.28235 0.14471-2.5635 2.0875-7.1187 2.8192-8.0558 5.1901 0.47225 9.1592-0.15281 14.514 0.0189 0.54113 2.2056-1.5221 6.7629-2.0932 8.3192z" fill="#483737" stroke="#000" stroke-width=".3929"/> <path d="m169.78 437.08c-5.7414 0.50524-12.374 0.0113-16.053-0.28235 0.14471-2.5635 2.0875-7.3897 2.8192-8.3268 5.1901 0.47226 9.9721-0.1528 15.327 0.0189 0.54113 2.2056-1.5221 7.0339-2.0932 8.5902z" fill="#483737" stroke="#000" stroke-width=".3929"/> <path d="m199.88 437.08c-5.7414 0.50524-13.025 0.0113-16.703-0.28235 0.14471-2.5635 2.0875-7.9316 2.8192-8.8687 5.1901 0.47226 9.9721-0.15281 15.327 0.0189 0.54113 2.2056-0.87176 7.5758-1.4429 9.1321z" fill="#483737" stroke="#000" stroke-width=".3929"/> <path d="m228.95 437.08c-5.7414 0.50524-13.025 0.0113-16.703-0.28235 0.1447-2.5635 1.3017-8.2026 2.0334-9.1397 5.1901 0.47226 9.9721-0.1528 15.327 0.0189 0.54113 2.2056-0.0859 7.8468-0.65708 9.403z" fill="#483737" stroke="#000" stroke-width=".3929"/> <path d="m258.44 437.08c-5.7414 0.50524-13.16 0.0113-16.838-0.28235 0.1447-2.5635 1.4372-7.7961 2.1689-8.7332 5.1901 0.47225 9.8366-0.15282 15.191 0.0189 0.54112 2.2056 0.0495 7.4403-0.52161 8.9966z" fill="#483737" stroke="#000" stroke-width=".3929"/> <path d="m287.92 436.81c-5.7414 0.50524-14.081 0.28231-17.76-0.0114 0.1447-2.5635 1.4372-7.7961 2.1689-8.7332 5.1901 0.47226 9.8366-0.15281 15.191 0.019 0.54114 2.2056 0.97081 7.1693 0.39969 8.7256z" fill="#483737" stroke="#000" stroke-width=".3929"/> <path d="m316.99 436.81c-5.7414 0.50524-14.081 0.28231-17.76-0.0114 0.1447-2.5635 1.4372-7.7961 2.1689-8.7332 5.1901 0.47226 9.8366-0.15281 15.191 0.019 0.54112 2.2056 0.97081 7.1693 0.39968 8.7256z" fill="#483737" stroke="#000" stroke-width=".3929"/> <path d="m346.85 437.14c-5.7414 0.50525-14.081 0.28232-17.76-0.0114 0.1447-2.5635 0.75974-8.4464 1.4914-9.3835 5.1901 0.47225 9.8366-0.15281 15.191 0.0189 0.54113 2.2056 1.6482 7.8196 1.0771 9.3759z" fill="#483737" stroke="#000" stroke-width=".3929"/> <path d="m376.08 436.81c-5.7414 0.50524-13.724 0.28231-17.402-0.0114 0.14471-2.5635 0.21782-8.4464 0.94952-9.3835 5.1901 0.47224 10.021-0.15282 15.376 0.0189 0.54112 2.2056 1.6482 7.8197 1.0771 9.376z" fill="#483737" stroke="#000" stroke-width=".3929"/> <path d="m405.52 436.96c-5.7414 0.50525-13.81 0.28232-17.489-0.0114 0.1447-2.5635-0.18863-8.4464 0.54306-9.3836 5.1901 0.47225 9.9721-0.15281 15.327 0.0189 0.54114 2.2056 2.1902 7.8197 1.619 9.3759z" fill="#483737" stroke="#000" stroke-width=".3929"/> <path d="m435.24 436.77c-5.7414 0.50525-13.81 0.28232-17.489-0.0114 0.14471-2.5635-0.3241-8.311 0.4076-9.2481 4.3772 0.2013 10.108-0.1528 15.462 0.0189 0.54115 2.2056 2.1902 7.6842 1.619 9.2405z" fill="#483737" stroke="#000" stroke-width=".3929"/> <path d="m464.32 436.77c-5.7414 0.50525-13.81 0.28232-17.489-0.0114 0.14471-2.5635-0.86603-8.311-0.13437-9.248 4.3772 0.20129 10.65 0.11815 16.004 0.28994 0.54115 2.2056 2.3257 7.4132 1.7545 8.9695z" fill="#483737" stroke="#000" stroke-width=".3929"/> <path d="m493.53 437.23c-5.7414 0.23428-12.212 0.28232-15.89-0.0114 0.1447-2.5635-1.8144-8.311-1.0828-9.248 4.3772 0.20128 9.9992 0.11815 15.354 0.28994 0.54111 2.2056 2.3256 7.5487 1.7545 9.105z" fill="#483737" stroke="#000" stroke-width=".3929"/> <path d="m523.74 436.9c-5.7414 0.23427-13.268 0.28232-16.947-0.0114-0.12624-2.699-2.0361-8.1755-1.3044-9.1126 4.3772 0.20128 9.9992 0.11815 15.354 0.28995 0.54114 2.2056 3.6041 7.4132 3.033 8.9695z" fill="#483737" stroke="#000" stroke-width=".3929"/> <path d="m550.89 436.9c-5.7414 0.23427-13.268 0.28232-16.947-0.0114-0.12624-2.699-2.3933-8.1755-1.6616-9.1126 4.3772 0.20128 9.9992 0.11815 15.354 0.28995 0.5411 2.2056 3.9613 7.4132 3.3902 8.9695z" fill="#483737" stroke="#000" stroke-width=".3929"/> <path d="m208.25 404.62h40.719" fill="none" stroke="#d95050" stroke-width=".3929"/> <path d="m207.46 405.41h40.719" fill="none" stroke="#dc9552" stroke-width=".3929"/> <path d="m207.11 406.3h40.719" fill="none" stroke="#ccc551" stroke-width=".3929"/> <path d="m206.75 407.2h40.719" fill="none" stroke="#47bd17" stroke-width=".3929"/> <path d="m205.53 408.1h40.719" fill="none" stroke="#495ec7" stroke-width=".3929"/> <path d="m205 409.17h40.719" fill="none" stroke="#6b0583" stroke-width=".3929"/> <path d="m257.40453,406.11662c.95586-.16546 1.92832-.0187 2.88989-.10013 .33906-.58643-.22897-1.3455-.86144-1.35666-2.31749.26845-5.21264-.68938-7.24899.25408-.70352.33238-1.78047,2.06922-1.0381,2.72145 .51592.20033 1.08364.40937 1.61608.54613 1.82278-.23887 3.77864.0133 5.30738.0304 .57838-.10749 1.17406-.19519 1.71635-.42812 .43026-.24752.48864-.96231-.0335-1.1398-1.49549-.56814-3.20302-.46452-4.65537-.44364-.36553-.12832-.81619.23536-1.12472-.0733-.22026-.48882.54122-.5119.85075-.42482 .81367.0996 1.63483-.0174 2.45164.0189 .71872.002 1.43101.10824 2.13532.23771 .37218.0316.74741-.004 1.11297-.0761" fill="#e6e6e6" stroke="#000" stroke-width=".19645"/> <path d="m261.33553,405.44317c-.36591.26997-.67183,1.16228-.46409,1.61753 2.27565.0524 4.94479.0216 6.21355-.002 .34806.17377.20954.86569.70479,1.07252s1.62426-.0714 1.70097-.2788c.0392-.45823.40208-.60952.80105-.63221 .35334-.17324.29893-.6973.20435-1.01645-.0607-.35997-.73051-.005-.67377-.37709 .19518-.40903.007-1.20736-.40041-1.15504-.92558.10007-1.84144.048-2.69312-.12085-1.64238.25791-3.62076.75196-5.39332.89205z" fill="#e6e6e6" stroke="#000" stroke-width=".19645"/> <path d="m135.00844,405.86394c-1.3134-.30385-3.3625-.20671-4.48071-.0928-2.26687.50001-3.08435,1.33185-2.17079,2.72504 1.5385.46305 3.21925.21461 4.54018.28608 .31811-.009.73709-.66571.76563-1.01781-1.25103-.17417-3.32983.20903-2.88478-.54845 .95025-.88429 2.41346-.59188 3.37015-.56227 .64244-.37982.62472-.52407.86032-.7898z" fill="#e6e6e6" stroke="#000" stroke-width=".00196"/> <path d="m134.61 406.58 3.1243 0.12415-1.469 0.4966-1.9213-0.0281z" fill="#e6e6e6" stroke="#000" stroke-width=".00196"/> <path d="m134.31 407.5-0.71641 0.5025 2.978 0.0281-0.34029-0.50842z" fill="#e6e6e6" stroke="#000" stroke-width=".00196"/> </svg>